<?xml version="1.0" encoding="utf-8"?>
<!-- Generator: Adobe Illustrator 26.4.1, SVG Export Plug-In . SVG Version: 6.00 Build 0)  -->
<svg version="1.1" id="Слой_1" xmlns="http://www.w3.org/2000/svg" xmlns:xlink="http://www.w3.org/1999/xlink" x="0px" y="0px"
	 viewBox="0 0 2000 2000" style="enable-background:new 0 0 2000 2000;" xml:space="preserve">
<style type="text/css">
	.st0{fill:#BD66FF;}
	.st1{fill:#7D36B2;}
</style>
<path class="st0" d="M678.5,214.6L678.5,214.6c-34.8,4.2-67.3,19.3-92.8,43.3l0,0c-27.6,25.9-50.9,56.1-69,89.4L203.2,923.4
	c-11.3,20.8-18,43.8-19.7,67.4v0c-1.6,22.8,4.2,45.6,16.5,64.8l0,0c12.8,20,33.1,34.1,56.4,39h0c35.3,7.5,71.9,7,107-1.4l220.2-52.6
	c12.2-2.9,25.1,0.2,34.6,8.4h0c4.1,3.5,5.5,9.3,3.4,14.3l-226.6,548.8c-7.8,18.9-10.9,39.4-8.9,59.8l0,0l7.6,7.6
	c8.9,8.9,21.9,12.1,33.9,8.4h0c12.7-3.9,23.8-11.8,31.6-22.5l543.5-740.3c15.4-20.9,20-47.8,12.7-72.7l0,0
	c-10.4-35.3-41.4-60.6-78.1-63.9h0c-27.3-2.4-54.9-0.9-81.8,4.3L652,833l-93.5,10c-11.8,1.3-20-11.5-13.9-21.7L615,702l124-220
	l57-105l4.4-16.4c8.1-29.8,3.9-61.7-11.4-88.5l0,0c-7.3-12.6-16.7-23.9-27.9-33.2l0,0C738,219.8,708.2,211,678.5,214.6z"/>
<path class="st0" d="M1185.5,389L1185.5,389c-9.7,0-17.5-7.8-17.5-17.5v-17c0-9.7,7.8-17.5,17.5-17.5l0,0c9.7,0,17.5,7.8,17.5,17.5
	v17C1203,381.2,1195.2,389,1185.5,389z"/>
<path class="st0" d="M1186.5,475L1186.5,475c-9.7,0-17.5-7.8-17.5-17.5v-17c0-9.7,7.8-17.5,17.5-17.5l0,0c9.7,0,17.5,7.8,17.5,17.5
	v17C1204,467.2,1196.2,475,1186.5,475z"/>
<path class="st0" d="M1185.5,559L1185.5,559c-9.7,0-17.5-7.8-17.5-17.5v-17c0-9.7,7.8-17.5,17.5-17.5l0,0c9.7,0,17.5,7.8,17.5,17.5
	v17C1203,551.2,1195.2,559,1185.5,559z"/>
<path class="st0" d="M1269,638.5L1269,638.5c0-9.7,7.8-17.5,17.5-17.5h17c9.7,0,17.5,7.8,17.5,17.5l0,0c0,9.7-7.8,17.5-17.5,17.5
	h-17C1276.8,656,1269,648.2,1269,638.5z"/>
<path class="st0" d="M1352,637.5L1352,637.5c0-9.7,7.8-17.5,17.5-17.5h17c9.7,0,17.5,7.8,17.5,17.5l0,0c0,9.7-7.8,17.5-17.5,17.5
	h-17C1359.8,655,1352,647.2,1352,637.5z"/>
<path class="st0" d="M1436,637.5L1436,637.5c0-9.7,7.8-17.5,17.5-17.5h17c9.7,0,17.5,7.8,17.5,17.5l0,0c0,9.7-7.8,17.5-17.5,17.5
	h-17C1443.8,655,1436,647.2,1436,637.5z"/>
<path class="st0" d="M1268,254.5L1268,254.5c0-9.7,7.8-17.5,17.5-17.5h17c9.7,0,17.5,7.8,17.5,17.5v0c0,9.7-7.8,17.5-17.5,17.5h-17
	C1275.8,272,1268,264.2,1268,254.5z"/>
<path class="st0" d="M1351,253.5L1351,253.5c0-9.7,7.8-17.5,17.5-17.5h17c9.7,0,17.5,7.8,17.5,17.5v0c0,9.7-7.8,17.5-17.5,17.5h-17
	C1358.8,271,1351,263.2,1351,253.5z"/>
<path class="st0" d="M1435,253.5L1435,253.5c0-9.7,7.8-17.5,17.5-17.5h17c9.7,0,17.5,7.8,17.5,17.5v0c0,9.7-7.8,17.5-17.5,17.5h-17
	C1442.8,271,1435,263.2,1435,253.5z"/>
<path class="st0" d="M1570.5,391L1570.5,391c-9.7,0-17.5-7.8-17.5-17.5v-17c0-9.7,7.8-17.5,17.5-17.5l0,0c9.7,0,17.5,7.8,17.5,17.5
	v17C1588,383.2,1580.2,391,1570.5,391z"/>
<path class="st0" d="M1571.5,477L1571.5,477c-9.7,0-17.5-7.8-17.5-17.5v-17c0-9.7,7.8-17.5,17.5-17.5l0,0c9.7,0,17.5,7.8,17.5,17.5
	v17C1589,469.2,1581.2,477,1571.5,477z"/>
<path class="st0" d="M1570.5,561L1570.5,561c-9.7,0-17.5-7.8-17.5-17.5v-17c0-9.7,7.8-17.5,17.5-17.5l0,0c9.7,0,17.5,7.8,17.5,17.5
	v17C1588,553.2,1580.2,561,1570.5,561z"/>
<circle class="st0" cx="1190.5" cy="262.5" r="49.5"/>
<circle class="st0" cx="1562.5" cy="261.5" r="49.5"/>
<circle class="st0" cx="1564.5" cy="636.5" r="49.5"/>
<circle class="st0" cx="1188.5" cy="638.5" r="49.5"/>
<path class="st0" d="M1341.1,752.6L1341.1,752.6c-10.6,1.6-20.7,5.5-29.6,11.4h0c-26.2,17.3-49.8,38.1-70.3,61.8l0,0
	c-17.3,20-31,42.8-40.7,67.4l-7.2,18.3c-7.4,18.8-11,38.9-10.7,59.1v0c0.3,20.2,8.3,39.5,22.3,54v0c3.4,3.5,7.8,5.8,12.6,6.5
	l16.8,2.6c9.8,1.5,19.8,2.1,29.7,1.7l0,0c7.2-0.3,14.3-2.5,20.3-6.5l0,0c16.9-11.1,30.5-26.4,39.6-44.4l19.2-38
	c16.6-32.9,30-67.4,39.9-102.9v0c4-14.3,5.6-29.2,4.7-44l-0.6-10.8c-0.7-11.3-6.3-21.8-15.3-28.6l0,0
	C1362.9,753.7,1351.9,750.9,1341.1,752.6z"/>
<path class="st0" d="M1220,1170c-13.9,14.9-37.1,44-49,87c-11.1,40.1-6.6,71.3-3,96c5.3,36.4,14.5,46.8,23,51c7.2,3.6,13.6,2.6,23,2
	c32.1-2.1,46.9,3.4,65,4c34.3,1.2,91.3-14.5,143-39c36.3-17.2,106.6-51.5,167-128c80.4-101.9,89-209.6,91-241
	c2.9-44.4,6.7-118.8-39-182c-27-37.3-54.1-47-60-49c-45.5-15.3-103,1.9-127,39c-10.4,16.1-12.7,33-16,57c-1.4,10.5-2.7,25.3,0,68
	c3.4,54.3,6.9,53,6,68c-2.9,52.1-45.5,89.7-65,107c-49.9,44.2-106.5,53.5-131,56"/>
<path class="st1" d="M1084.5,923.2L1084.5,923.2c-7.3,2.4-13.4,7.7-16.8,14.7L999,1076l-175,331l-133.8,272.4
	c-4.1,8.3-6.3,17.4-6.6,26.6v0c-0.4,11.6,3.2,23,10.1,32.4v0c6.1,8.2,14.4,14.5,23.9,18h0c16.6,6.2,34.6,8.1,52.1,5.3l7-1.1
	c19.3-3,36.3-14.1,46.9-30.5l222.3-344.3c4.5-7,11.6-12.1,19.8-14h0c10.6-2.6,21.8-2,32.1,1.7l38,13.6c18.1,6.5,36.5,12.1,55.2,16.7
	l0,0l40-237l-15.5-6.9c-31.3-13.9-59.2-34.5-81.8-60.3l-0.7-0.9l0,0c-12.5-30.2-17.7-63-15.2-95.6l2.2-29.4l1.4-29.9
	c0.4-8.5-4.5-16.3-12.3-19.8h0C1101.3,920.9,1092.5,920.5,1084.5,923.2z"/>
</svg>
